<svg width="800" height="600" viewBox="0 0 800 600" xmlns="http://www.w3.org/2000/svg">
  <defs>
    <linearGradient id="skyGrad" x1="0%" y1="0%" x2="0%" y2="100%">
      <stop offset="0%" style="stop-color:#000033;stop-opacity:1" />
      <stop offset="100%" style="stop-color:#1a1a4d;stop-opacity:1" />
    </linearGradient>
  </defs>
  <rect width="800" height="600" fill="url(#skyGrad)" />

  <!-- BWTC Silhouette -->
  <path d="M200 600 L250 150 L300 600 Z" fill="#222" />
  <path d="M320 600 L370 150 L420 600 Z" fill="#222" />
  <!-- Turbines -->
  <line x1="285" y1="250" x2="335" y2="250" stroke="#00ffff" stroke-width="2" opacity="0.5" />
  <line x1="295" y1="350" x2="325" y2="350" stroke="#00ffff" stroke-width="2" opacity="0.5" />
  <line x1="305" y1="450" x2="315" y2="450" stroke="#00ffff" stroke-width="2" opacity="0.5" />

  <!-- Other buildings -->
  <rect x="100" y="400" width="60" height="200" fill="#111" />
  <rect x="500" y="350" width="80" height="250" fill="#1a1a1a" />
  <rect x="650" y="450" width="100" height="150" fill="#0a0a0a" />

  <!-- Distant Stars -->
  <circle cx="50" cy="50" r="1" fill="#fff" />
  <circle cx="150" cy="80" r="1.5" fill="#fff" />
  <circle cx="300" cy="40" r="1" fill="#fff" />
  <circle cx="450" cy="100" r="1" fill="#fff" />
  <circle cx="600" cy="60" r="1.5" fill="#fff" />
  <circle cx="750" cy="120" r="1" fill="#fff" />
</svg>
